<mxfile host="Electron" agent="Mozilla/5.0 (Windows NT 10.0; Win64; x64) AppleWebKit/537.36 (KHTML, like Gecko) draw.io/26.0.16 Chrome/132.0.6834.196 Electron/34.2.0 Safari/537.36" version="26.0.16">
  <diagram name="第 1 页" id="1-ryTb41H7zTLpXNorQV">
    <mxGraphModel dx="1050" dy="638" grid="1" gridSize="10" guides="1" tooltips="1" connect="1" arrows="1" fold="1" page="1" pageScale="1" pageWidth="3300" pageHeight="4681" math="0" shadow="0">
      <root>
        <mxCell id="0" />
        <mxCell id="1" parent="0" />
        <mxCell id="XfiOzngdMcfxojzLmoIP-6" style="edgeStyle=orthogonalEdgeStyle;rounded=0;orthogonalLoop=1;jettySize=auto;html=1;" edge="1" parent="1" source="XfiOzngdMcfxojzLmoIP-1" target="XfiOzngdMcfxojzLmoIP-2">
          <mxGeometry relative="1" as="geometry" />
        </mxCell>
        <mxCell id="XfiOzngdMcfxojzLmoIP-1" value="WX" style="rounded=1;whiteSpace=wrap;html=1;" vertex="1" parent="1">
          <mxGeometry x="350" y="80" width="120" height="60" as="geometry" />
        </mxCell>
        <mxCell id="XfiOzngdMcfxojzLmoIP-2" value="DB" style="shape=cylinder3;whiteSpace=wrap;html=1;boundedLbl=1;backgroundOutline=1;size=15;" vertex="1" parent="1">
          <mxGeometry x="380" y="220" width="60" height="80" as="geometry" />
        </mxCell>
        <mxCell id="XfiOzngdMcfxojzLmoIP-3" value="后端管理&lt;div&gt;业务统计，产品维护。。&lt;/div&gt;" style="rounded=1;whiteSpace=wrap;html=1;" vertex="1" parent="1">
          <mxGeometry x="580" y="210" width="190" height="100" as="geometry" />
        </mxCell>
        <mxCell id="XfiOzngdMcfxojzLmoIP-4" value="员工APK" style="rounded=1;whiteSpace=wrap;html=1;" vertex="1" parent="1">
          <mxGeometry x="105" y="520" width="120" height="60" as="geometry" />
        </mxCell>
        <mxCell id="XfiOzngdMcfxojzLmoIP-7" style="edgeStyle=orthogonalEdgeStyle;rounded=0;orthogonalLoop=1;jettySize=auto;html=1;entryX=1;entryY=0.5;entryDx=0;entryDy=0;entryPerimeter=0;" edge="1" parent="1" source="XfiOzngdMcfxojzLmoIP-3" target="XfiOzngdMcfxojzLmoIP-2">
          <mxGeometry relative="1" as="geometry" />
        </mxCell>
        <mxCell id="XfiOzngdMcfxojzLmoIP-10" style="edgeStyle=orthogonalEdgeStyle;rounded=0;orthogonalLoop=1;jettySize=auto;html=1;entryX=1;entryY=0.5;entryDx=0;entryDy=0;" edge="1" parent="1" source="XfiOzngdMcfxojzLmoIP-8" target="XfiOzngdMcfxojzLmoIP-4">
          <mxGeometry relative="1" as="geometry" />
        </mxCell>
        <mxCell id="XfiOzngdMcfxojzLmoIP-8" value="后台系统（自动派单）" style="rounded=1;whiteSpace=wrap;html=1;" vertex="1" parent="1">
          <mxGeometry x="340" y="430" width="120" height="60" as="geometry" />
        </mxCell>
        <mxCell id="XfiOzngdMcfxojzLmoIP-11" style="edgeStyle=orthogonalEdgeStyle;rounded=0;orthogonalLoop=1;jettySize=auto;html=1;entryX=0.5;entryY=1;entryDx=0;entryDy=0;" edge="1" parent="1" source="XfiOzngdMcfxojzLmoIP-9" target="XfiOzngdMcfxojzLmoIP-8">
          <mxGeometry relative="1" as="geometry" />
        </mxCell>
        <mxCell id="XfiOzngdMcfxojzLmoIP-12" style="edgeStyle=orthogonalEdgeStyle;rounded=0;orthogonalLoop=1;jettySize=auto;html=1;" edge="1" parent="1" source="XfiOzngdMcfxojzLmoIP-9">
          <mxGeometry relative="1" as="geometry">
            <mxPoint x="690" y="310" as="targetPoint" />
            <Array as="points">
              <mxPoint x="690" y="620" />
              <mxPoint x="690" y="310" />
            </Array>
          </mxGeometry>
        </mxCell>
        <mxCell id="XfiOzngdMcfxojzLmoIP-9" value="DB" style="shape=cylinder3;whiteSpace=wrap;html=1;boundedLbl=1;backgroundOutline=1;size=15;" vertex="1" parent="1">
          <mxGeometry x="370" y="580" width="60" height="80" as="geometry" />
        </mxCell>
        <mxCell id="XfiOzngdMcfxojzLmoIP-13" value="获取顾客订单信息" style="text;html=1;align=center;verticalAlign=middle;whiteSpace=wrap;rounded=0;" vertex="1" parent="1">
          <mxGeometry x="570" y="590" width="60" height="30" as="geometry" />
        </mxCell>
        <mxCell id="XfiOzngdMcfxojzLmoIP-14" value="Actor" style="shape=umlActor;verticalLabelPosition=bottom;verticalAlign=top;html=1;" vertex="1" parent="1">
          <mxGeometry x="120" y="340" width="30" height="60" as="geometry" />
        </mxCell>
        <mxCell id="XfiOzngdMcfxojzLmoIP-16" value="店长创建消费订单" style="text;html=1;align=center;verticalAlign=middle;whiteSpace=wrap;rounded=0;" vertex="1" parent="1">
          <mxGeometry x="230" y="340" width="60" height="30" as="geometry" />
        </mxCell>
        <mxCell id="XfiOzngdMcfxojzLmoIP-17" style="edgeStyle=orthogonalEdgeStyle;rounded=0;orthogonalLoop=1;jettySize=auto;html=1;entryX=0.563;entryY=-0.037;entryDx=0;entryDy=0;entryPerimeter=0;" edge="1" parent="1" source="XfiOzngdMcfxojzLmoIP-14" target="XfiOzngdMcfxojzLmoIP-8">
          <mxGeometry relative="1" as="geometry" />
        </mxCell>
        <mxCell id="XfiOzngdMcfxojzLmoIP-18" value="" style="line;strokeWidth=2;html=1;" vertex="1" parent="1">
          <mxGeometry x="60" y="320" width="980" height="10" as="geometry" />
        </mxCell>
        <mxCell id="XfiOzngdMcfxojzLmoIP-23" value="" style="rounded=1;whiteSpace=wrap;html=1;fillColor=#d5e8d4;strokeColor=#82b366;opacity=20;" vertex="1" parent="1">
          <mxGeometry x="50" y="70" width="870" height="230" as="geometry" />
        </mxCell>
        <mxCell id="XfiOzngdMcfxojzLmoIP-24" value="" style="rounded=1;whiteSpace=wrap;html=1;opacity=20;fillColor=#f8cecc;strokeColor=#b85450;" vertex="1" parent="1">
          <mxGeometry x="40" y="330" width="910" height="350" as="geometry" />
        </mxCell>
      </root>
    </mxGraphModel>
  </diagram>
</mxfile>
